<svg viewBox="0 0 64 64" xmlns="http://www.w3.org/2000/svg">
	<title>Packbat</title>
	<rect width="64" height="64" rx="12" fill="#12141A" />
	<path d="M2 158 L10 171 L20 181 L29 186 L17 164 L9 138 L6 119 L6 89 L12 54 L19 33 L35 2 L35 27 L38 40 L52 65 L76 87 L121 114 L133 124 L140 133 L135 122 L124 110 L99 93 L136 82 L169 81 L196 86 L223 97 L247 80 L261 66 L270 53 L279 27 L279 2 L290 22 L301 51 L308 90 L308 118 L304 143 L297 164 L285 186 L295 180 L303 172 L312 157 L304 190 L286 223 L313 231 L188 309 L165 317 L144 316 L126 309 L2 232 L2 230 L28 222 L12 195 Z M174 235 L180 241 L198 248 L218 247 L234 238 L246 223 L253 204 L254 185 L249 165 L216 194 L224 206 L225 216 L222 225 L215 232 L201 235 L192 232 L184 225 Z M60 183 L60 198 L64 215 L73 231 L85 242 L100 248 L115 248 L126 245 L139 237 L138 233 L129 225 L122 232 L113 235 L99 232 L92 225 L89 216 L91 204 L98 195 L67 166 L64 167 Z" fill="#F2EFE6" fill-rule="evenodd" transform="translate(8.3 8) scale(.15047)" />
</svg>
